<?xml version="1.0" encoding="iso-8859-1"?>
<!-- Generator: Adobe Illustrator 19.0.0, SVG Export Plug-In . SVG Version: 6.00 Build 0)  -->
<svg version="1.1" id="Capa_1" xmlns="http://www.w3.org/2000/svg" xmlns:xlink="http://www.w3.org/1999/xlink" x="0px" y="0px"
	 viewBox="0 0 448 448" style="enable-background:new 0 0 448 448;" xml:space="preserve">
<g>
	<path d="M424.807,151.238c-4.284-4.707-10.245-7.311-16.807-7.329h-96V88c0-48.523-39.477-88-88-88s-88,39.477-88,88v55.909H39.977
		c-6.539,0.019-12.5,2.621-16.783,7.329c-4.273,4.694-6.3,10.851-5.708,17.332c6.69,73.481,13.5,150.628,20.821,235.847
		c1.094,12.701,11.471,24.62,23.637,27.137C115.156,442.467,169.679,448,224,448s108.845-5.533,162.069-16.449
		c12.153-2.514,22.529-14.433,23.624-27.136c7.309-85.09,14.12-162.235,20.82-235.842
		C431.106,162.09,429.08,155.934,424.807,151.238z M152,88c0-39.701,32.299-72,72-72s72,32.299,72,72v55.909H152V88z
		 M382.841,415.88C330.686,426.576,277.244,432,224,432s-106.686-5.424-158.828-16.117c-5.232-1.082-10.438-7.201-10.924-12.837
		c-1.179-13.724-2.344-27.218-3.498-40.543c57.499,9.043,115.374,13.579,173.249,13.579c57.875,0,115.75-4.535,173.249-13.579
		c-1.154,13.326-2.319,26.82-3.497,40.541C393.266,408.681,388.059,414.801,382.841,415.88z M414.579,167.119
		c-4.3,47.242-8.646,95.953-13.14,147.27c-0.072,0.009-0.144,0.011-0.216,0.022c-13.271,2.057-26.785,3.905-40.167,5.495
		c-4.387,0.521-7.521,4.501-7,8.888c0.483,4.067,3.938,7.058,7.935,7.058c0.314,0,0.633-0.019,0.954-0.057
		c12.341-1.466,24.785-3.16,37.063-5.022c-0.443,5.075-0.887,10.177-1.333,15.306c-115.922,18.656-233.427,18.656-349.348,0
		c-0.446-5.13-0.89-10.233-1.333-15.308c57.97,8.793,116.979,13.228,176.059,13.228c16.429,0,32.863-0.342,49.282-1.027
		c4.415-0.185,7.844-3.912,7.66-8.327c-0.185-4.414-3.916-7.847-8.327-7.659c-75.667,3.159-151.665-1.073-225.89-12.574
		c-0.072-0.011-0.144-0.013-0.216-0.022c-4.498-51.372-8.845-100.084-13.141-147.272c-0.179-1.96,0.391-3.774,1.606-5.108
		c1.227-1.348,3.001-2.093,4.974-2.099h96v17.103c-13.786,3.561-24,16.104-24,30.987c0,17.645,14.355,32,32,32s32-14.355,32-32
		c0-4.418-3.582-8-8-8s-8,3.582-8,8c0,8.822-7.178,16-16,16s-16-7.178-16-16c0-5.907,3.226-11.063,8-13.835V208c0,4.418,3.582,8,8,8
		s8-3.582,8-8v-48.091h144v17.103c-13.786,3.561-24,16.104-24,30.987c0,17.645,14.355,32,32,32s32-14.355,32-32c0-4.418-3.582-8-8-8
		s-8,3.582-8,8c0,8.822-7.178,16-16,16s-16-7.178-16-16c0-5.907,3.226-11.063,8-13.835V208c0,4.418,3.582,8,8,8s8-3.582,8-8v-48.091
		h95.977c1.996,0.006,3.771,0.751,4.997,2.099C414.189,163.342,414.759,165.156,414.579,167.119z"/>
	<path d="M329.277,323.237c-7.913,0.718-15.932,1.363-23.835,1.916c-4.408,0.309-7.73,4.132-7.422,8.539
		c0.295,4.218,3.808,7.441,7.972,7.441c0.188,0,0.377-0.006,0.567-0.02c8.012-0.561,16.143-1.215,24.165-1.943
		c4.4-0.399,7.643-4.29,7.244-8.69C337.568,326.08,333.685,322.836,329.277,323.237z"/>
</g>
<g>
</g>
<g>
</g>
<g>
</g>
<g>
</g>
<g>
</g>
<g>
</g>
<g>
</g>
<g>
</g>
<g>
</g>
<g>
</g>
<g>
</g>
<g>
</g>
<g>
</g>
<g>
</g>
<g>
</g>
</svg>
